
<svg xmlns="http://www.w3.org/2000/svg" xmlns:xlink="http://www.w3.org/1999/xlink" viewBox="0 0 141 31">
	<defs>
		<style>
			.cls-1, .cls-3, .cls-6 {
				fill: #333;
			}
			.cls-1, .cls-10, .cls-11, .cls-12, .cls-13, .cls-18, .cls-19, .cls-2 {
				fill-rule: evenodd;
			}
			.cls-2, .cls-4 {
				fill: #309bdf;
			}
			.cls-24, .cls-26, .cls-3 {
				font-size: 12px;
			}
			.cls-3, .cls-4, .cls-7 {
				font-family: Calibri;
			}
			.cls-4 {
				font-size: 12.126px;
			}

			.cls-5 {
				fill: #e2e2e2;
				opacity: 0.6;
			}
			.cls-6 {
				font-size: 16px;
				font-family: GalanoGrotesqueAlt-Medium, GalanoGrotesqueAlt-Medium;
			}
			.cls-7 {
				font-size: 11.117px;
			}
			.cls-13, .cls-14, .cls-18, .cls-25, .cls-26, .cls-7, .cls-8, .cls-9 {
				fill: #fff;
			}
			.cls-8, .cls-9 {
				font-size: 50px;
				font-family: "Tw Cen MT Condensed";
				text-transform: uppercase;
			}

			.cls-14, .cls-27, .cls-8 {
				text-anchor: middle;
			}

			.cls-10 {
				fill: #ee5858;
			}

			.cls-11 {
				fill: #978ec5;
			}

			.cls-12 {
				fill: #412342;
			}

			.cls-14 {
				font-size: 22.695px;
			}

			.cls-14, .cls-16 {
				font-family: "Tw Cen MT";
			}

			.cls-15 {
				font-family: "Myriad Pro";
				font-size: 25.887px;
			}

			.cls-16 {
				font-size: 23.887px;
			}

			.cls-17 {
				fill: #f4f4f4;
			}

			.cls-18, .cls-19 {
				stroke: #e5e9ef;
				stroke-linejoin: round;
				stroke-width: 1px;
			}

			.cls-19 {
				fill: #e5e9ef;
			}

			.cls-20, .cls-25 {
				font-size: 11px;
			}

			.cls-20 {
				fill: #172140;
				font-family: GalanoGrotesque-Medium, GalanoGrotesque-Medium;
			}

			.cls-21 {
				font-size: 12.174px;
				fill: #414f61;
			}

			.cls-21, .cls-22, .cls-23 {
				opacity: 0.8;
			}

			.cls-21, .cls-22, .cls-23, .cls-24, .cls-25, .cls-26, .cls-27, .cls-28 {
				font-family: GalanoGrotesque-Regular, GalanoGrotesque-Regular;
			}

			.cls-22 {
				font-size: 13.188px;
			}

			.cls-23 {
				font-size: 9.13px;
				fill: #959696;
			}

			.cls-24, .cls-27, .cls-28 {
				fill: #757e89;
			}

			.cls-27 {
				font-size: 10px;
			}

			.cls-28 {
				font-size: 14.203px;
			}
		</style>

	</defs>
	<g>
		<path id="Shape_11_copy_4" data-name="Shape 11 copy 4" class="cls-1" d="M62.443,6.9h0a9.428,9.428,0,0,1,9.673,9.166,9.662,9.662,0,0,1-19.3,0A9.415,9.415,0,0,1,62.443,6.9m0,15.921h0a6.6,6.6,0,0,0,6.494-6.73,6.476,6.476,0,1,0-12.937,0,6.593,6.593,0,0,0,6.444,6.73M91.678,18.8a0.6,0.6,0,0,0-.6-0.611H89.1a0.611,0.611,0,0,0-.565.39,6.14,6.14,0,0,1-6.179,4.177,6.485,6.485,0,0,1-6.263-6.71A6.5,6.5,0,0,1,82.361,9.29a6.251,6.251,0,0,1,5.9,3.591l0.007,0a0.6,0.6,0,0,0,.54.332H90.77a0.608,0.608,0,0,0,.605-0.612,0.922,0.922,0,0,0-.084-0.346C88.905,6.847,82.4,6.886,82.4,6.886a9.321,9.321,0,0,0-9.476,9.162,9.321,9.321,0,0,0,9.476,9.16,9.629,9.629,0,0,0,9.2-6.015,1.125,1.125,0,0,0,.081-0.389m-45.3,3.45a4.748,4.748,0,0,0,2.434-4.288V8.207A0.61,0.61,0,0,1,49.419,7.6h1.971A0.608,0.608,0,0,1,52,8.207l-0.009,9.534a7.2,7.2,0,0,1-7.219,7.43H43.581a11.665,11.665,0,0,1-3.142-.547,6.341,6.341,0,0,1-4.43-6.011V18.525a0.607,0.607,0,0,1,.6-0.613h1.6a0.53,0.53,0,0,1,.576.549V18.59c0,2.313,2.258,4.189,5.041,4.189a5.749,5.749,0,0,0,2.554-.526m63.029,1.207-6.773-10,4.833-5a0.573,0.573,0,0,0,.132-0.389,0.442,0.442,0,0,0-.408-0.471h-2.413a0.587,0.587,0,0,0-.427.182l-7.873,7.981V8.207A0.609,0.609,0,0,0,95.874,7.6H94.9s-1.6-.087-1.6,2.072V23.737a0.607,0.607,0,0,0,.605.611h0.975s1.6,0.089,1.6-2.072V19.817l4-4.136,5.68,8.353a0.673,0.673,0,0,0,.51.29h2.469a0.443,0.443,0,0,0,.406-0.474,0.825,0.825,0,0,0-.134-0.39m11.436-6.62a1.285,1.285,0,0,0,0-2.57H113.8V10.159h8.012a1.284,1.284,0,0,0,0-2.568H111.727a1.127,1.127,0,0,0-1.121,1.134V23.185a1.131,1.131,0,0,0,1.121,1.139h10.088a1.286,1.286,0,0,0,0-2.571H113.8V16.839h7.041Zm9.252,6.2a1.227,1.227,0,0,0,1.123,1.309H132.2a1.228,1.228,0,0,0,1.124-1.309l0-4.735,6.465-9.463a1.337,1.337,0,0,0,.2-0.611,0.605,0.605,0,0,0-.606-0.606h-2.163a1.164,1.164,0,0,0-.99.644l-4.683,6.875L127.45,8.267a1.168,1.168,0,0,0-.994-0.644h-1.938a0.606,0.606,0,0,0-.6.606,1.3,1.3,0,0,0,.2.611l5.979,9.622Zm5.432,1.383V22.987h-0.5V22.7h1.353v0.286h-0.5v1.434h-0.346Zm1.07,0V22.7h0.514l0.307,1.172,0.3-1.172h0.518v1.72h-0.321V23.065l-0.335,1.356H137.25l-0.337-1.356v1.356H136.6Z"/>
		<path id="Color_Fill_527" data-name="Color Fill 527" class="cls-1" d="M30.464,23.644s-0.569-.377-0.848-0.519A5.466,5.466,0,0,0,22.257,25.6a4.611,4.611,0,0,0-.355,3.812,9.93,9.93,0,0,1-5.147-1.174,9.461,9.461,0,0,1-4.342-4.326,8.035,8.035,0,0,1-.671-3.809,5.5,5.5,0,0,0,4.551,2.425c5.191,0,8.7-4.067,8.7-4.067a11.428,11.428,0,0,0,2.3-7.2,11.709,11.709,0,0,0-2-6.808l-0.007-.013a10.7,10.7,0,0,0-3.839-3.233,10.468,10.468,0,0,0-4.88-1.2h-0.32a1.042,1.042,0,0,0-.962,1.052,6.948,6.948,0,0,0-.073,1.013,5.549,5.549,0,0,0,5.646,5.5,4.636,4.636,0,0,0,3.589-1.478,10.242,10.242,0,0,1,1.338,5.217,9.733,9.733,0,0,1-1.871,5.98A8.3,8.3,0,0,1,21.2,19.517a5.632,5.632,0,0,0-.861-6.387,12.423,12.423,0,0,0-7.42-5.06,11,11,0,0,0-7.23,1.6,11.61,11.61,0,0,0-4.8,5.1l-0.006.016A10.753,10.753,0,0,0,0,19.7a10.572,10.572,0,0,0,1.346,4.808L1.5,24.79a0.986,0.986,0,0,0,1.356.3,7.989,7.989,0,0,0,.9-0.436,5.585,5.585,0,0,0,1.927-7.61,4.521,4.521,0,0,0-2.992-2.363,10.141,10.141,0,0,1,3.781-3.745,9.393,9.393,0,0,1,5.978-1.357,7.859,7.859,0,0,1,3.786,1.676L16.4,11.347c-0.033,0-.069-0.006-0.1-0.006a5.545,5.545,0,0,0-5.436,4.605,12.832,12.832,0,0,0,.042,8.393,11.079,11.079,0,0,0,5.214,5.256A11.433,11.433,0,0,0,22.944,30.9l0.016,0a10.5,10.5,0,0,0,4.556-1.913,10.452,10.452,0,0,0,3.277-3.745l0.149-.282a0.974,0.974,0,0,0-.479-1.314m-14.17-10.77a4.062,4.062,0,1,1-4.013,4.061,4.035,4.035,0,0,1,4.013-4.061m4.526-6.85c-4.293,0-4.079-4.443-4.079-4.443a8.5,8.5,0,0,1,4.834,1.38A9.269,9.269,0,0,1,23.71,4.8a3.507,3.507,0,0,1-2.89,1.224m2.786,20.191c2.043-3.745,5.726-1.443,5.726-1.443a8.546,8.546,0,0,1-3.475,3.565,9.178,9.178,0,0,1-2.582.987,3.569,3.569,0,0,1,.33-3.11M4.395,17.842c2.066,3.728-1.811,5.686-1.811,5.686a8.694,8.694,0,0,1-1.158-4.862,9.323,9.323,0,0,1,.534-2.746,3.484,3.484,0,0,1,2.436,1.923"/>
	</g>
</svg>
